<svg id="visual" viewBox="0 0 960 540" width="960" height="540" xmlns="http://www.w3.org/2000/svg" xmlns:xlink="http://www.w3.org/1999/xlink" version="1.1"><rect x="0" y="0" width="960" height="540" fill="#fff6da"></rect><path d="M0 407L22.8 406.8C45.7 406.7 91.3 406.3 137 389.2C182.7 372 228.3 338 274 337.5C319.7 337 365.3 370 411.2 389.3C457 408.7 503 414.3 548.8 411.2C594.7 408 640.3 396 686 379.2C731.7 362.3 777.3 340.7 823 331.8C868.7 323 914.3 327 937.2 329L960 331L960 541L937.2 541C914.3 541 868.7 541 823 541C777.3 541 731.7 541 686 541C640.3 541 594.7 541 548.8 541C503 541 457 541 411.2 541C365.3 541 319.7 541 274 541C228.3 541 182.7 541 137 541C91.3 541 45.7 541 22.8 541L0 541Z" fill="#a94a4a" stroke-linecap="round" stroke-linejoin="miter"></path></svg>